<?xml version="1.0" standalone="no"?>
<!DOCTYPE svg PUBLIC "-//W3C//DTD SVG 1.0//EN" "http://www.w3.org/TR/2001/REC-SVG-20010904/DTD/svg10.dtd">
<svg xmlns="http://www.w3.org/2000/svg" xmlns:xlink="http://www.w3.org/1999/xlink" id="body_1" width="51" height="38">

<g transform="matrix(0.5 0 0 0.49350652 0 0)">
	<g transform="matrix(3.2083335 0 0 3.2083335 12.5 -0)">
		<g>
            <path d="M2 3C 2 2.4477153 2.4477153 2 3 2L3 2L21 2C 21.552284 2 22 2.4477153 22 3L22 3L22 21C 22 21.552284 21.552284 22 21 22L21 22L3 22C 2.4477153 22 2 21.552284 2 21L2 21L2 3z" stroke="none" fill="#ECE4B7" fill-rule="nonzero" />
            <path d="M9.707 10.707L11 9.414L11 17C 11 17.552284 11.447716 18 12 18C 12.552285 18 13 17.552284 13 17L13 17L13 9.414L14.293 10.707C 14.685377 11.085986 15.309093 11.080572 15.694833 10.694833C 16.080572 10.309093 16.085985 9.685377 15.707001 9.292999L15.707001 9.292999L12.707001 6.2929993C 12.519392 6.1049156 12.264655 5.9992113 11.999001 5.9992113C 11.733346 5.9992113 11.478609 6.1049156 11.291 6.2929993L11.291 6.2929993L8.291 9.292999C 7.9120398 9.68538 7.917465 10.309076 8.303194 10.694805C 8.688923 11.080534 9.312619 11.085959 9.705 10.706999L9.705 10.706999L9.707 10.707z" stroke="none" fill="#FF8E31" fill-rule="nonzero" />
		</g>
	</g>
</g>
</svg>